<?xml version="1.0" encoding="UTF-8" standalone="no"?>
<!-- License: MIT. Made by joypixels: https://github.com/joypixels/emojione -->

<svg
   width="800"
   height="800"
   viewBox="0 0 64 64"
   aria-hidden="true"
   role="img"
   class="iconify iconify--emojione"
   preserveAspectRatio="xMidYMid"
   version="1.1"
   id="svg3"
   sodipodi:docname="taukeyboard-logo.svg"
   inkscape:version="1.3 (0e150ed, 2023-07-21)"
   inkscape:export-filename="../workspace/taukeyboard/website/static/images/logo.svg"
   inkscape:export-xdpi="96"
   inkscape:export-ydpi="96"
   xmlns:inkscape="http://www.inkscape.org/namespaces/inkscape"
   xmlns:sodipodi="http://sodipodi.sourceforge.net/DTD/sodipodi-0.dtd"
   xmlns="http://www.w3.org/2000/svg"
   xmlns:svg="http://www.w3.org/2000/svg">
  <defs
     id="defs3" />
  <sodipodi:namedview
     id="namedview3"
     pagecolor="#ffffff"
     bordercolor="#000000"
     borderopacity="0.25"
     inkscape:showpageshadow="2"
     inkscape:pageopacity="0.0"
     inkscape:pagecheckerboard="0"
     inkscape:deskcolor="#d1d1d1"
     showgrid="false"
     inkscape:zoom="0.46431257"
     inkscape:cx="778.57035"
     inkscape:cy="402.74593"
     inkscape:window-width="1440"
     inkscape:window-height="775"
     inkscape:window-x="-1"
     inkscape:window-y="23"
     inkscape:window-maximized="0"
     inkscape:current-layer="svg3" />
  <path
     d="m 62,52 c 0,5.5 -4.5,10 -10,10 H 12 C 6.5,62 2,57.5 2,52 V 12 C 2,6.5 6.5,2 12,2 h 40 c 5.5,0 10,4.5 10,10 z"
     fill="#d0d0d0"
     id="path1" />
  <path
     d="M 57,45.7 C 57,50.3 53.3,54 48.7,54 H 15.3 C 10.7,54 7,50.3 7,45.7 V 12.3 C 7,7.7 10.7,4 15.3,4 h 33.3 c 4.6,0 8.3,3.7 8.3,8.3 v 33.4 z"
     fill="#ffffff"
     id="path2" />
  <text
     xml:space="preserve"
     style="font-style:normal;font-variant:normal;font-weight:normal;font-stretch:normal;font-size:45.572px;font-family:'.Al Bayan PUA';-inkscape-font-specification:'.Al Bayan PUA';fill:#999999;fill-opacity:1;stroke-width:0.237354"
     x="9.573267"
     y="42.045891"
     id="text4"><tspan
       sodipodi:role="line"
       id="tspan4"
       style="font-style:normal;font-variant:normal;font-weight:normal;font-stretch:normal;font-family:'Hiragino Sans GB';-inkscape-font-specification:'Hiragino Sans GB';fill:#999999;fill-opacity:1;stroke-width:0.237354"
       x="9.573267"
       y="42.045891">τ</tspan></text>
</svg>
